<?xml version="1.0" encoding="utf-8"?><svg viewBox="0 0 155.504 54.05" xmlns="http://www.w3.org/2000/svg" xmlns:xlink="http://www.w3.org/1999/xlink"><style>:root>svg{display:none}:root>svg:target{display:block}</style><svg viewBox="0 0 48.445 47.651" id="100-prozent-echt" xmlns="http://www.w3.org/2000/svg"><defs><clipPath id="aa"><path data-name="Rechteck 586" fill="none" d="M0 0h48.445v47.651H0z"/></clipPath></defs><g data-name="Gruppe 1278"><g data-name="Gruppe 1263"><g data-name="Gruppe 1264"><g data-name="Gruppe 1263" clip-path="url(#aa)" fill="none"><path data-name="Pfad 1304" d="M29.758 39.093c7.01-6.539 18.187-18.229 18.187-26.279" stroke="#031a41" stroke-miterlimit="10"/><path data-name="Pfad 1305" d="M47.945 12.814A12.311 12.311 0 0024.223 8.2 12.311 12.311 0 00.5 12.814C.5 21.763 11.184 32.743 18.212 39" stroke="#031a41" stroke-miterlimit="10"/><path data-name="Pfad 1306" d="M16.142 23.046L21 27.9l11.3-11.3" stroke="#031a41" stroke-miterlimit="10"/><path data-name="Linie 121" stroke="#de322f" d="M24.165 43.581l4.5 3.671"/><path data-name="Linie 122" stroke="#de322f" d="M24.693 43.556l-4.913 3.695"/><path data-name="Linie 123" stroke="#de322f" d="M24.281 44.113l-4.5-3.671"/><path data-name="Linie 124" stroke="#de322f" d="M23.753 44.138l4.913-3.695"/></g></g></g></g></svg><svg viewBox="0 0 122.971 35.996" id="FxxK-Logo" xmlns="http://www.w3.org/2000/svg"><defs><clipPath id="ba"><path data-name="Rechteck 426" fill="#e74a3f" d="M0 0h122.971v35.995H0z"/></clipPath></defs><g data-name="Gruppe 1092"><path data-name="Pfad 1211" d="M0 0v36h8.033V21.885h15.861V14.83H8.033V7.055h16.685V0z" fill="#e74a3f"/><path data-name="Pfad 1212" d="M46.759 8.291l-4.892 7.416-4.737-7.416h-9.219l9.167 13.595-9.682 14.11h8.909l5.252-7.621 5.408 7.621h9.217l-9.887-14.159 9.527-13.544z" fill="#e74a3f"/><path data-name="Pfad 1213" d="M76.883 8.291l-4.892 7.416-4.737-7.416h-9.221l9.17 13.595-9.682 14.11h8.912l5.252-7.621 5.408 7.621h9.217l-9.89-14.159 9.527-13.544z" fill="#e74a3f"/><g data-name="Gruppe 1091"><g data-name="Gruppe 1090" clip-path="url(#ba)"><path data-name="Pfad 1214" d="M91.404 0h8.033v14.779L113.032 0h9.939l-14.316 15.912q1.853 2.575 6.849 9.6T122.971 36h-9.372l-10.557-14.217-3.6 4.016V36h-8.033z" fill="#e74a3f"/></g></g></g></svg><svg viewBox="0 0 43.647 43.124" id="Icon-facebook-primary" xmlns="http://www.w3.org/2000/svg"><g transform="translate(.75 .75)" fill="none" stroke="#e74a3f" stroke-miterlimit="10" stroke-width="1.5"><ellipse data-name="Ellipse 53" cx="21.073" cy="20.812" rx="21.073" ry="20.812"/><path d="M16.597 42.145v-15.1h-5.2v-5.843h5.2v-4.831c0-5.069 3.058-7.865 7.737-7.865a36.393 36.393 0 014.913.394v5.438l-2.912-.011c-2.427-.065-3.337 1.2-3.337 2.938v3.934h5.676l-.91 5.843h-4.765v15.106"/></g></svg><svg viewBox="0 0 43.647 43.647" id="Icon-instagram-primary" xmlns="http://www.w3.org/2000/svg"><g transform="translate(.75 .75)" fill="none" stroke="#e74a3f" stroke-miterlimit="10" stroke-width="1.5"><g data-name="Gruppe 188" transform="translate(13.647 9.206)"><circle data-name="Ellipse 54" cx="7.453" cy="7.453" transform="translate(0 4.49)" r="7.453"/><circle data-name="Ellipse 55" cx="2.029" cy="2.029" transform="translate(15.147)" r="2.029"/></g><ellipse data-name="Ellipse 56" cx="21.073" cy="21.074" rx="21.073" ry="21.074"/></g></svg><svg viewBox="0 0 24.011 20" id="basket-icon" xmlns="http://www.w3.org/2000/svg"><defs><clipPath id="ea"><path data-name="Rechteck 444" fill="none" stroke="#122253" d="M0 0h24.011v20H0z"/></clipPath></defs><g data-name="Gruppe 1100"><g data-name="Gruppe 1099" clip-path="url(#ea)" fill="none" stroke="#122253" stroke-miterlimit="10"><path data-name="Pfad 1221" d="M9.982 4.241h13.345L20.4 12.773H6.11L3.761.552H0"/><path data-name="Pfad 1222" d="M10.434 17.475A1.974 1.974 0 118.459 15.5a1.975 1.975 0 011.975 1.975z"/><path data-name="Pfad 1223" d="M20.02 17.475a1.974 1.974 0 11-1.975-1.975 1.975 1.975 0 011.975 1.975z"/></g></g></svg><svg viewBox="0 0 13.707 13.707" id="close-icon" xmlns="http://www.w3.org/2000/svg"><g data-name="Gruppe 1190" fill="none" stroke="#b2b2b2"><path data-name="Linie 119" d="M.354 13.354l13-13"/><path data-name="Linie 120" d="M13.354 13.354l-13-13"/></g></svg><svg viewBox="0 0 57.817 52.179" id="diskrete-bezahlung" xmlns="http://www.w3.org/2000/svg"><defs><clipPath id="ga"><path data-name="Rechteck 588" fill="none" d="M0 0h57.817v52.179H0z"/></clipPath></defs><g data-name="Gruppe 1279"><g data-name="Gruppe 1264"><g data-name="Gruppe 1268"><g data-name="Gruppe 1267"><g data-name="Gruppe 1266" clip-path="url(#ga)" fill="none" stroke="#031a41" stroke-miterlimit="10"><path data-name="Pfad 1307" d="M1.04 23.47L40.574.645a1.08 1.08 0 011.475.395l15.123 26.193a1.082 1.082 0 01-.4 1.477L17.243 51.534a1.078 1.078 0 01-1.475-.4L.645 24.945a1.079 1.079 0 01.395-1.475z"/><path data-name="Rechteck 587" d="M2.996 29.008L44.401 5.103l2.1 3.636L5.095 32.644z"/><path data-name="Linie 125" d="M38.402 33.601l3.289-1.899"/><path data-name="Linie 126" d="M46.029 29.198l3.289-1.899"/></g></g><path data-name="Linie 127" fill="none" stroke="#de322f" d="M14.292 38.803l12.137 3.252"/><path data-name="Linie 128" fill="none" stroke="#de322f" d="M21.986 34.36l-3.252 12.137"/></g></g></g></svg><svg viewBox="0 0 45.239 51.66" id="diskrete-verpackung" xmlns="http://www.w3.org/2000/svg"><defs><clipPath id="ha"><path data-name="Rechteck 589" fill="none" d="M0 0h45.239v51.66H0z"/></clipPath></defs><g data-name="Gruppe 1280"><g data-name="Gruppe 1265"><g data-name="Gruppe 1272"><g data-name="Gruppe 1271"><g data-name="Gruppe 1270" clip-path="url(#ha)" fill="none" stroke="#031a41" stroke-miterlimit="10"><path data-name="Pfad 1308" d="M.943 13.606L22.619.583 44.3 13.606l-21.677 14.1z"/><path data-name="Linie 129" d="M22.62 27.709v23.343"/><path data-name="Pfad 1309" d="M44.3 13.605v22.807L22.619 51.056.943 36.412V13.605"/></g></g><path data-name="Linie 130" fill="none" stroke="#de322f" d="M7.195 25.501L14.692 38.5"/><path data-name="Linie 131" fill="none" stroke="#de322f" d="M14.734 30.646l-7.226 2.989"/></g></g></g></svg><svg viewBox="0 0 19.339 13.912" id="filter-icon" xmlns="http://www.w3.org/2000/svg"><g data-name="Gruppe 1159" stroke="#122253"><path data-name="Pfad 1257" d="M0 3.161h19.339" fill="none"/><path data-name="Pfad 1258" d="M19.34 10.75H.001" fill="none"/><g data-name="Ellipse 88" transform="translate(11.185)" fill="#fff"><circle cx="3.162" cy="3.162" stroke="none" r="3.162"/><circle cx="3.162" cy="3.162" fill="none" r="2.662"/></g><g data-name="Ellipse 89" transform="rotate(180 4.662 6.956)" fill="#fff"><circle cx="3.162" cy="3.162" stroke="none" r="3.162"/><circle cx="3.162" cy="3.162" fill="none" r="2.662"/></g></g></svg><svg viewBox="0 0 44.604 26.809" id="icon-pfeil-links" xmlns="http://www.w3.org/2000/svg"><g data-name="Gruppe 268" fill="none" stroke="#fff" stroke-miterlimit="10"><path data-name="Linie 12" d="M44.604 13.405H.707"/><path data-name="Pfad 140" d="M13.757 26.456L.706 13.405 13.757.354"/></g></svg><svg viewBox="0 0 44.604 26.809" id="icon-pfeil-rechts" xmlns="http://www.w3.org/2000/svg"><g fill="none" stroke="#e74a3f" stroke-miterlimit="10"><path data-name="Linie 12" d="M0 13.405h43.897"/><path data-name="Pfad 140" d="M30.847.354l13.051 13.051-13.051 13.051"/></g></svg><svg viewBox="0 0 44.604 26.809" id="icon-pfeil-secondary-rechts" xmlns="http://www.w3.org/2000/svg"><g fill="none" stroke="#122253" stroke-miterlimit="10"><path data-name="Linie 12" d="M0 13.405h43.897"/><path data-name="Pfad 140" d="M30.847.354l13.051 13.051-13.051 13.051"/></g></svg><svg version="1.1" id="icon-pfeil-secondary-rechts-links" x="0" y="0" viewBox="0 0 44.6 26.8" xml:space="preserve" xmlns="http://www.w3.org/2000/svg"><style>.mst0{fill:none;stroke:#122253;stroke-miterlimit:10}</style><g id="micon-pfeil" transform="translate(-221.91 248.473)"><path id="mLinie_12" class="mst0" d="M265.8-235.1h-43.9"/><path id="mPfad_140" class="mst0" d="M235-222l-13.1-13.1 13.1-13.1"/></g></svg><svg viewBox="0 0 18.966 13.912" id="kategorie-icon" xmlns="http://www.w3.org/2000/svg"><g data-name="Gruppe 1160" stroke="#122253"><path data-name="Pfad 1259" d="M8.653 3.161h10.314" fill="none"/><path data-name="Pfad 1260" d="M18.966 10.75H8.652" fill="none"/><g data-name="Ellipse 90" fill="#fff"><circle cx="3.162" cy="3.162" stroke="none" r="3.162"/><circle cx="3.162" cy="3.162" fill="none" r="2.662"/></g><g data-name="Ellipse 91" transform="rotate(180 3.162 6.956)" fill="#fff"><circle cx="3.162" cy="3.162" stroke="none" r="3.162"/><circle cx="3.162" cy="3.162" fill="none" r="2.662"/></g></g></svg><svg viewBox="0 0 52.12 52.081" id="keine-gebuehr" xmlns="http://www.w3.org/2000/svg"><defs><clipPath id="oa"><path data-name="Rechteck 590" fill="none" d="M0 0h52.12v52.081H0z"/></clipPath></defs><g data-name="Gruppe 1281"><g data-name="Gruppe 1266"><g data-name="Gruppe 1276"><g data-name="Gruppe 1275"><g data-name="Gruppe 1274" clip-path="url(#oa)" fill="none" stroke="#031a41" stroke-miterlimit="10"><path data-name="Pfad 1310" d="M37.6 20.191a20.229 20.229 0 11-5.6-5.638"/><path data-name="Pfad 1311" d="M32.5 23.221a14.284 14.284 0 11-5.026-4.489"/><path data-name="Pfad 1312" d="M28.21 28.153a8.078 8.078 0 11-5.275-4.636"/><path data-name="Pfad 1313" d="M26.58 25.5L45.566 6.511V0"/><path data-name="Linie 132" d="M45.568 6.51h6.552"/><path data-name="Linie 133" d="M40.949 11.073V4.636"/><path data-name="Linie 134" d="M41.004 11.129h6.437"/></g></g><path data-name="Linie 135" fill="none" stroke="#de322f" d="M16.43 26.833l8.885 8.885"/><path data-name="Linie 136" fill="none" stroke="#de322f" d="M25.315 26.832l-8.885 8.885"/></g></g></g></svg><svg data-name="Gruppe 1151" viewBox="0 0 23.214 14.677" id="mail-footer" xmlns="http://www.w3.org/2000/svg"><defs><clipPath id="pa"><path data-name="Rechteck 497" fill="none" stroke="#e74a3f" d="M0 0h23.214v14.677H0z"/></clipPath></defs><g data-name="Gruppe 1150" clip-path="url(#pa)" fill="none" stroke="#e74a3f" stroke-miterlimit="10"><path data-name="Rechteck 496" d="M.537.539h22.141V14.14H.537z"/><path data-name="Pfad 1250" d="M11.607 9.102L.943.853A.175.175 0 011.051.54h21.422a.068.068 0 01.046.123z"/><path data-name="Pfad 1251" d="M9.389 7.383l-8.684 6.65a.057.057 0 00.03.106h21.721a.063.063 0 00.034-.116l-8.66-6.64"/></g></svg><svg viewBox="0 0 23.188 24.973" id="profil-icon" xmlns="http://www.w3.org/2000/svg"><defs><clipPath id="qa"><path data-name="Rechteck 443" fill="none" stroke="#122253" d="M0 0h23.188v24.973H0z"/></clipPath></defs><g data-name="Gruppe 1098"><g data-name="Gruppe 1097"><g data-name="Gruppe 1096" clip-path="url(#qa)" fill="none" stroke="#122253" stroke-miterlimit="10"><path data-name="Pfad 1219" d="M5.869 6.903a5.725 5.725 0 105.724-5.724 5.725 5.725 0 00-5.724 5.724z"/><path data-name="Pfad 1220" d="M1.028 24.974a10.566 10.566 0 0121.132 0"/></g></g></g></svg><svg viewBox="0 0 25 25.009" id="search-icon" xmlns="http://www.w3.org/2000/svg"><defs><clipPath id="ra"><path data-name="Rechteck 446" fill="none" stroke="#122253" d="M0 0h25.009v25H0z"/></clipPath></defs><g data-name="Gruppe 1104"><g data-name="Gruppe 1103" clip-path="url(#ra)" fill="none" stroke="#122253" stroke-miterlimit="10" transform="rotate(-90 12.505 12.505)"><path data-name="Pfad 1227" d="M2.761 24.485l6.986-7.033a.8.8 0 00.074-.08"/><path data-name="Pfad 1228" d="M7.616 15.108a.727.727 0 00-.1.1L.519 22.232"/><path data-name="Pfad 1229" d="M6.061 11.084a9.27 9.27 0 0010.3 7.982 9.085 9.085 0 007.827-10.28A9.268 9.268 0 0013.892.803a9.081 9.081 0 00-7.831 10.281z"/><path data-name="Pfad 1230" d="M15.936 15.892a5.929 5.929 0 005.106-6.7"/></g></g></svg><svg viewBox="0 0 24.214 24.425" id="telefon-footer" xmlns="http://www.w3.org/2000/svg"><g data-name="Gruppe 1153"><g data-name="Gruppe 1154" fill="none" stroke="#e74a3f" stroke-miterlimit="10"><path data-name="Pfad 1252" d="M21.685 10.23A9.732 9.732 0 002.662 7.336a4.01 4.01 0 00-.108.7"/><path data-name="Pfad 1253" d="M21.686 17.986h0a1.865 1.865 0 01-2.028-1.619v-4.515a1.865 1.865 0 012.028-1.622 1.865 1.865 0 012.028 1.622v4.516a1.865 1.865 0 01-2.028 1.618z"/><path data-name="Pfad 1254" d="M2.526 17.986h0A1.863 1.863 0 01.5 16.367v-4.515a1.863 1.863 0 012.026-1.622 1.865 1.865 0 012.028 1.622v4.516a1.865 1.865 0 01-2.028 1.618z"/><path data-name="Pfad 1255" d="M21.685 17.988h0a4.877 4.877 0 01-4.874 4.877h-1.167"/><path data-name="Pfad 1256" d="M14.585 23.922h-2.21a1.06 1.06 0 010-2.119h2.21a1.06 1.06 0 010 2.119z"/></g></g></svg><svg viewBox="0 0 136.517 47.531" id="unterstreichung-primary" xmlns="http://www.w3.org/2000/svg"><g data-name="Gruppe 1094" fill="none" stroke="#e74a3f" stroke-width="3"><path data-name="Pfad 1217" d="M.116 24.772s126.154 3.496 135.646-.774"/><path data-name="Pfad 1218" d="M.906 15.953s66.731 10.172 133.596 15.59"/></g></svg><svg viewBox="0 0 155.504 54.05" id="unterstreichung-secondary" xmlns="http://www.w3.org/2000/svg"><g data-name="Gruppe 1286" fill="none" stroke="#122253" stroke-width="2"><path data-name="Pfad 1217" d="M-.228 29.835s144.342-3.296 155.124-5.825" stroke-width="1.99922"/><path data-name="Pfad 1218" d="M.206 23.326s77.111 4.86 154.245 6.181" stroke-width="1.99922"/></g></svg></svg>