<svg xmlns="http://www.w3.org/2000/svg" xmlns:xlink="http://www.w3.org/1999/xlink" width="25" height="25.009" viewBox="0 0 25 25.009">
  <defs>
    <clipPath id="clip-path">
      <rect id="Rechteck_446" data-name="Rechteck 446" width="25.009" height="25" fill="none" stroke="#122253" stroke-width="1"/>
    </clipPath>
  </defs>
  <g id="Gruppe_1104" data-name="Gruppe 1104" transform="translate(0 25.009) rotate(-90)">
    <g id="Gruppe_1103" data-name="Gruppe 1103" clip-path="url(#clip-path)">
      <path id="Pfad_1227" data-name="Pfad 1227" d="M4.533,12.3l6.986-7.033a.8.8,0,0,0,.074-.08" transform="translate(-1.772 12.185)" fill="none" stroke="#122253" stroke-miterlimit="10" stroke-width="1"/>
      <path id="Pfad_1228" data-name="Pfad 1228" d="M12.288,4.509c-.037.03-.07.064-.1.1L5.191,11.633" transform="translate(-4.672 10.599)" fill="none" stroke="#122253" stroke-miterlimit="10" stroke-width="1"/>
      <path id="Pfad_1229" data-name="Pfad 1229" d="M.3,10.572a9.27,9.27,0,0,0,10.3,7.982,9.085,9.085,0,0,0,7.827-10.28A9.268,9.268,0,0,0,8.131.291,9.081,9.081,0,0,0,.3,10.572Z" transform="translate(5.761 0.512)" fill="none" stroke="#122253" stroke-miterlimit="10" stroke-width="1"/>
      <path id="Pfad_1230" data-name="Pfad 1230" d="M1.168,9.447a5.929,5.929,0,0,0,5.106-6.7" transform="translate(14.768 6.445)" fill="none" stroke="#122253" stroke-miterlimit="10" stroke-width="1"/>
    </g>
  </g>
</svg>
