<svg xmlns="http://www.w3.org/2000/svg" width="24.214" height="24.425" viewBox="0 0 24.214 24.425">
  <g id="Gruppe_1153" data-name="Gruppe 1153" transform="translate(0.5 0.5)">
    <g id="Gruppe_1154" data-name="Gruppe 1154" transform="translate(0 0)">
      <path id="Pfad_1252" data-name="Pfad 1252" d="M20.71,10.406A9.732,9.732,0,0,0,1.687,7.512a4.01,4.01,0,0,0-.108.7" transform="translate(0.475 -0.676)" fill="none" stroke="#e74a3f" stroke-miterlimit="10" stroke-width="1"/>
      <path id="Pfad_1253" data-name="Pfad 1253" d="M10.758,12.5h0A1.865,1.865,0,0,1,8.73,10.881V6.366a1.865,1.865,0,0,1,2.028-1.622,1.865,1.865,0,0,1,2.028,1.622v4.516A1.865,1.865,0,0,1,10.758,12.5Z" transform="translate(10.428 4.986)" fill="none" stroke="#e74a3f" stroke-miterlimit="10" stroke-width="1"/>
      <path id="Pfad_1254" data-name="Pfad 1254" d="M2.746,12.5h0A1.863,1.863,0,0,1,.72,10.881V6.366A1.863,1.863,0,0,1,2.746,4.744,1.865,1.865,0,0,1,4.774,6.366v4.516A1.865,1.865,0,0,1,2.746,12.5Z" transform="translate(-0.72 4.986)" fill="none" stroke="#e74a3f" stroke-miterlimit="10" stroke-width="1"/>
      <path id="Pfad_1255" data-name="Pfad 1255" d="M13.093,7.988h0a4.877,4.877,0,0,1-4.874,4.877H7.052" transform="translate(8.092 9.5)" fill="none" stroke="#e74a3f" stroke-miterlimit="10" stroke-width="1"/>
      <path id="Pfad_1256" data-name="Pfad 1256" d="M8.51,11.7H6.3a1.06,1.06,0,0,1,0-2.119H8.51a1.06,1.06,0,0,1,0,2.119Z" transform="translate(5.575 11.722)" fill="none" stroke="#e74a3f" stroke-miterlimit="10" stroke-width="1"/>
    </g>
  </g>
</svg>
